<svg width="1507" height="148" viewBox="0 0 1507 148" fill="none" xmlns="http://www.w3.org/2000/svg">
<g clip-path="url(#clip0_257_2)">
<path d="M47.23 90.31C49.29 94.9 52.19 98.36 55.93 100.71C59.67 103.06 64.04 104.23 69.04 104.23C73.09 104.23 76.43 103.57 79.07 102.25C81.7 100.93 83.66 99.28 84.92 97.29C86.19 95.3 86.96 93.2 87.23 90.99C87.53 88.6 88.31 86.47 89.6 84.58C90.88 82.69 92.72 81.19 95.13 80.09C97.54 78.98 100.49 78.43 103.97 78.43H114.7C118.3 78.43 121.37 79.07 123.91 80.35C126.45 81.63 128.35 83.51 129.63 86C130.91 88.49 131.5 91.53 131.4 95.13C131.1 104.33 128.45 112.9 123.46 120.85C118.47 128.81 111.31 135.2 101.99 140.05C92.67 144.9 81.69 147.32 69.04 147.32C55.75 147.32 43.87 144.31 33.42 138.3C22.97 132.29 14.79 123.72 8.87 112.58C2.96 101.45 0 88.48 0 73.66C0 58.84 2.96 45.88 8.87 34.75C14.78 23.61 22.96 15.04 33.42 9.03C43.87 3.01 55.74 0 69.04 0C82.34 0 92.67 2.42 101.99 7.27C111.31 12.12 118.47 18.51 123.46 26.47C128.45 34.43 131.1 43 131.4 52.19C131.5 55.79 130.91 58.84 129.63 61.32C128.35 63.81 126.45 65.69 123.91 66.97C121.38 68.25 118.31 68.89 114.7 68.89H103.97C100.49 68.89 97.55 68.34 95.13 67.23C92.72 66.12 90.88 64.63 89.6 62.74C88.32 60.85 87.53 58.71 87.23 56.33C86.96 54.12 86.19 52.02 84.92 50.03C83.65 48.04 81.7 46.39 79.07 45.07C76.44 43.75 73.09 43.09 69.04 43.09C64.04 43.09 59.68 44.26 55.93 46.61C52.19 48.96 49.29 52.43 47.23 57.01C45.17 61.6 44.13 67.14 44.13 73.65C44.13 80.16 45.16 85.71 47.23 90.3V90.31Z" fill="#045B88"/>
<path d="M156.77 138.26C146.22 132.22 137.89 123.62 131.77 112.47C125.66 101.31 122.6 88.38 122.6 73.66C122.6 58.94 125.66 46.01 131.77 34.86C137.88 23.7 146.21 15.1 156.77 9.06C167.32 3.02 179.05 0 191.98 0C204.91 0 216.64 3.02 227.19 9.06C237.74 15.1 246.07 23.7 252.18 34.86C258.3 46.02 261.35 58.95 261.35 73.66C261.35 88.37 258.3 101.31 252.18 112.47C246.07 123.63 237.74 132.23 227.19 138.26C216.64 144.3 204.9 147.32 191.98 147.32C179.06 147.32 167.32 144.3 156.77 138.26ZM204.74 100.54C208.56 98.28 211.59 94.87 213.84 90.33C216.09 85.78 217.21 80.23 217.21 73.66C217.21 67.09 216.08 61.55 213.84 57C211.59 52.45 208.56 49.05 204.74 46.79C200.92 44.53 196.67 43.4 191.97 43.4C187.27 43.4 183.02 44.53 179.2 46.79C175.38 49.05 172.35 52.46 170.1 57C167.85 61.55 166.73 67.1 166.73 73.66C166.73 80.22 167.86 85.78 170.1 90.33C172.35 94.88 175.38 98.28 179.2 100.54C183.02 102.8 187.27 103.93 191.97 103.93C196.67 103.93 200.92 102.8 204.74 100.54Z" fill="#045B88"/>
<path d="M263.53 140.97C260.68 138.12 259.26 133.98 259.26 128.54V18.7898C259.26 13.3498 260.68 9.19984 263.53 6.35984C266.38 3.50984 270.52 2.08984 275.96 2.08984H286.4C291.84 2.08984 295.99 3.50984 298.83 6.35984C301.67 9.20984 303.1 13.3498 303.1 18.7898V111.27L294.12 102.29H344.11C349.55 102.29 353.7 103.71 356.54 106.56C359.39 109.41 360.81 113.55 360.81 118.99V128.53C360.81 133.97 359.39 138.12 356.54 140.96C353.69 143.81 349.55 145.23 344.11 145.23H275.97C270.53 145.23 266.38 143.81 263.54 140.96L263.53 140.97Z" fill="#045B88"/>
<path d="M471.08 110.74C465.14 121.59 456.83 130.05 446.16 136.13C435.48 142.21 423.32 145.24 409.65 145.24H370.96C365.52 145.24 361.37 143.82 358.53 140.97C355.68 138.12 354.26 133.98 354.26 128.54V18.7898C354.26 13.3498 355.68 9.19984 358.53 6.35984C361.38 3.50984 365.52 2.08984 370.96 2.08984H409.65C423.32 2.08984 435.49 5.12984 446.16 11.1998C456.84 17.2798 465.14 25.7398 471.08 36.5898C477.02 47.4398 479.99 59.7899 479.99 73.6599C479.99 87.5299 477.02 99.8898 471.08 110.74ZM432.33 57.4098C429.98 53.1598 426.64 50.0198 422.3 47.9998C417.96 45.9698 412.75 44.9598 406.66 44.9598H389.1L398.08 35.9798V111.35L389.1 102.37H406.66C412.75 102.37 417.96 101.36 422.3 99.3298C426.64 97.2998 429.98 94.1699 432.33 89.9099C434.68 85.6599 435.85 80.2499 435.85 73.6599C435.85 67.0699 434.68 61.6598 432.33 57.4098Z" fill="#045B88"/>
<path d="M995.43 140.97C992.58 138.12 991.16 133.98 991.16 128.54V18.7898C991.16 13.3498 992.58 9.19984 995.43 6.35984C998.28 3.50984 1002.42 2.08984 1007.86 2.08984H1018.3C1023.74 2.08984 1027.89 3.50984 1030.73 6.35984C1033.57 9.20984 1035 13.3498 1035 18.7898V111.27L1026.02 102.29H1076.01C1081.45 102.29 1085.6 103.71 1088.44 106.56C1091.29 109.41 1092.71 113.55 1092.71 118.99V128.53C1092.71 133.97 1091.29 138.12 1088.44 140.96C1085.59 143.81 1081.45 145.23 1076.01 145.23H1007.87C1002.43 145.23 998.28 143.81 995.44 140.96L995.43 140.97Z" fill="#045B88"/>
<path d="M1160.25 5.56047C1162.11 6.28047 1163.7 7.41047 1165 8.93047C1166.3 10.4605 1167.43 12.4905 1168.37 15.0205L1208.96 124.32C1209.61 126.08 1209.87 127.92 1209.76 129.82C1209.65 131.72 1209.15 133.54 1208.28 135.28C1207.51 136.82 1206.5 138.16 1205.24 139.29C1203.98 140.42 1202.57 141.3 1200.99 141.92C1199.41 142.54 1197.76 142.85 1196.05 142.85H1186.24C1182.09 142.85 1178.68 141.92 1176.01 140.06C1173.34 138.19 1171.28 135.31 1169.84 131.41L1142.55 56.8905H1143.67L1116.39 131.41C1114.95 135.31 1112.89 138.19 1110.22 140.06C1107.55 141.93 1104.14 142.85 1099.99 142.85H1090.19C1088.47 142.85 1086.83 142.54 1085.25 141.92C1083.67 141.3 1082.26 140.42 1081 139.29C1079.74 138.16 1078.73 136.82 1077.96 135.28C1077.09 133.54 1076.6 131.72 1076.49 129.82C1076.38 127.92 1076.65 126.09 1077.29 124.32L1117.88 15.0205C1118.82 12.4905 1119.95 10.4505 1121.25 8.93047C1122.55 7.40047 1124.14 6.28047 1126 5.56047C1127.87 4.84047 1130.14 4.48047 1132.82 4.48047H1153.4C1156.08 4.48047 1158.36 4.84047 1160.22 5.56047H1160.25ZM1119.43 76.0505H1166.85L1183.96 112.58H1102.32L1119.43 76.0505Z" fill="#045B88"/>
<path d="M1225.75 141.36C1217.1 137.38 1210.42 131.84 1205.7 124.72C1200.98 117.6 1198.63 109.49 1198.65 100.4C1198.65 96.9 1199.33 93.87 1200.68 91.32C1202.04 88.77 1203.96 86.82 1206.46 85.47C1208.96 84.11 1211.92 83.44 1215.35 83.44H1225.94C1229.37 83.44 1232.32 83.99 1234.79 85.08C1237.26 86.18 1239.15 87.65 1240.46 89.5C1241.76 91.35 1242.49 93.43 1242.64 95.75C1242.74 97.86 1243.4 99.6 1244.63 100.97C1245.86 102.34 1247.52 103.34 1249.61 103.97C1251.69 104.6 1254.13 104.92 1256.92 104.92C1259.23 104.92 1261.22 104.72 1262.88 104.33C1264.54 103.93 1265.81 103.37 1266.68 102.63C1267.55 101.9 1267.99 101.02 1267.99 100C1267.99 99.23 1267.82 98.6 1267.48 98.1C1267.15 97.6 1266.66 97.2 1266.03 96.89C1265.39 96.58 1264.62 96.35 1263.7 96.2L1242.19 92.44C1233.64 90.92 1226.27 88.33 1220.09 84.67C1213.9 81 1209.09 76.13 1205.66 70.06C1202.23 63.98 1200.52 56.7 1200.52 48.2C1200.52 38.56 1202.95 30.09 1207.83 22.8C1212.7 15.51 1219.34 9.89004 1227.74 5.95004C1236.14 2.01004 1245.46 0.0400391 1255.7 0.0400391C1265.94 0.0400391 1275.3 1.95004 1283.71 5.78004C1292.12 9.61004 1298.77 15.06 1303.66 22.13C1308.54 29.2 1310.97 37.39 1310.95 46.71C1310.95 50.21 1310.27 53.22 1308.92 55.73C1307.57 58.24 1305.64 60.15 1303.14 61.45C1300.64 62.75 1297.68 63.4 1294.25 63.4H1283.74C1280.26 63.4 1277.29 62.87 1274.81 61.82C1272.34 60.76 1270.45 59.3 1269.14 57.42C1267.83 55.54 1267.13 53.4 1267.03 50.99C1266.96 49.15 1266.35 47.56 1265.22 46.22C1264.09 44.88 1262.57 43.85 1260.67 43.13C1258.77 42.41 1256.64 42.05 1254.28 42.05C1252.21 42.05 1250.45 42.27 1248.97 42.7C1247.49 43.14 1246.37 43.74 1245.6 44.53C1244.83 45.31 1244.44 46.22 1244.44 47.27C1244.44 47.99 1244.59 48.59 1244.89 49.06C1245.19 49.53 1245.66 49.92 1246.31 50.22C1246.96 50.52 1247.84 50.77 1248.96 50.97L1271.37 54.92C1283.87 57.16 1293.75 61.86 1301.02 69.03C1308.29 76.2 1311.93 86.3 1311.93 99.32C1311.93 108.61 1309.69 116.89 1305.22 124.14C1300.75 131.4 1294.28 137.08 1285.82 141.2C1277.36 145.31 1267.36 147.37 1255.83 147.37C1244.3 147.37 1234.43 145.38 1225.78 141.41L1225.75 141.36Z" fill="#045B88"/>
<path d="M1308.67 35.43C1307.04 33.8 1306.23 31.44 1306.23 28.33V18.79C1306.23 15.68 1307.04 13.32 1308.67 11.69C1310.3 10.06 1312.66 9.25 1315.77 9.25H1401.66C1404.77 9.25 1407.13 10.07 1408.76 11.69C1410.39 13.32 1411.2 15.68 1411.2 18.79V28.33C1411.2 31.44 1410.39 33.8 1408.76 35.43C1407.13 37.06 1404.77 37.87 1401.66 37.87H1315.77C1312.66 37.87 1310.3 37.06 1308.67 35.43ZM1343.96 18.79H1373.49V128.53C1373.49 131.64 1372.68 134 1371.05 135.63C1369.42 137.26 1367.06 138.07 1363.95 138.07H1353.51C1350.4 138.07 1348.04 137.26 1346.41 135.63C1344.78 134 1343.97 131.64 1343.97 128.53V18.79H1343.96Z" fill="#045B88"/>
<path d="M1431.13 135.12C1423.61 131.75 1417.86 127.04 1413.87 120.99C1409.88 114.94 1407.9 107.96 1407.92 100.06C1407.92 98.0202 1408.31 96.3002 1409.09 94.8802C1409.87 93.4602 1410.99 92.3902 1412.43 91.6702C1413.87 90.9502 1415.57 90.5901 1417.54 90.5901H1428.27C1430.31 90.5901 1432.01 90.9002 1433.38 91.5202C1434.74 92.1402 1435.78 93.0302 1436.47 94.1802C1437.17 95.3402 1437.54 96.7201 1437.59 98.3401C1437.66 101.2 1438.56 103.61 1440.26 105.57C1441.96 107.53 1444.32 109.01 1447.34 109.99C1450.36 110.97 1453.88 111.46 1457.91 111.46C1461.94 111.46 1465.33 111.01 1468.24 110.12C1471.15 109.22 1473.38 107.92 1474.93 106.19C1476.48 104.46 1477.26 102.4 1477.26 100.02C1477.26 97.8602 1476.82 96.0802 1475.94 94.6702C1475.06 93.2702 1473.81 92.1802 1472.19 91.4102C1470.58 90.6402 1468.57 90.0402 1466.19 89.6202L1445.72 86.1202C1438.21 84.8302 1431.78 82.5802 1426.41 79.3502C1421.04 76.1302 1416.93 71.9102 1414.07 66.6902C1411.21 61.4702 1409.78 55.3202 1409.78 48.2402C1409.78 39.8602 1411.87 32.5802 1416.04 26.3802C1420.21 20.1802 1425.94 15.4302 1433.23 12.1202C1440.51 8.81016 1448.69 7.16016 1457.76 7.16016C1466.83 7.16016 1475.14 8.75016 1482.45 11.9502C1489.77 15.1402 1495.51 19.7302 1499.67 25.7202C1503.83 31.7102 1505.9 38.7202 1505.88 46.7402C1505.88 48.7502 1505.49 50.4702 1504.71 51.9002C1503.93 53.3302 1502.82 54.4002 1501.39 55.1302C1499.96 55.8502 1498.25 56.2102 1496.26 56.2102H1485.71C1483.65 56.2102 1481.93 55.9102 1480.57 55.3002C1479.2 54.6902 1478.17 53.8102 1477.47 52.6502C1476.78 51.4902 1476.38 50.0902 1476.28 48.4202C1476.15 45.7902 1475.32 43.4902 1473.78 41.5202C1472.24 39.5602 1470.08 38.0302 1467.29 36.9502C1464.51 35.8702 1461.2 35.3302 1457.38 35.3302C1453.56 35.3302 1450.4 35.8302 1447.7 36.8202C1445 37.8202 1442.94 39.2302 1441.51 41.0702C1440.08 42.9102 1439.37 45.0802 1439.37 47.5902C1439.37 49.6302 1439.78 51.3102 1440.58 52.6202C1441.39 53.9402 1442.66 54.9902 1444.4 55.7902C1446.14 56.5902 1448.49 57.2402 1451.45 57.7702L1472.03 61.3902C1482.89 63.2502 1491.41 67.2502 1497.58 73.3702C1503.76 79.5002 1506.85 88.1302 1506.85 99.2602C1506.85 107.16 1504.93 114.2 1501.11 120.38C1497.28 126.56 1491.67 131.39 1484.28 134.9C1476.89 138.4 1468.03 140.15 1457.72 140.15C1447.41 140.15 1438.64 138.47 1431.12 135.1L1431.13 135.12Z" fill="#045B88"/>
<path d="M520.91 38.9897C518.47 36.5597 517.26 32.9997 517.26 28.3297V18.7897C517.26 14.1397 518.48 10.5897 520.91 8.13973C523.34 5.69973 526.9 4.46973 531.57 4.46973H617.46C622.1 4.46973 625.65 5.69973 628.1 8.13973C630.54 10.5897 631.77 14.1397 631.77 18.7897V28.3297C631.77 32.9997 630.54 36.5597 628.1 38.9897C625.65 41.4297 622.1 42.6397 617.46 42.6397H531.57C526.9 42.6397 523.34 41.4197 520.91 38.9897ZM554.98 18.7897H594.05V128.53C594.05 133.2 592.83 136.76 590.38 139.19C587.93 141.63 584.38 142.84 579.74 142.84H569.3C564.63 142.84 561.07 141.62 558.64 139.19C556.21 136.76 554.99 133.2 554.99 128.53V18.7897H554.98Z" fill="#045B88"/>
<path d="M635.409 11.69C637.039 10.06 639.399 9.25 642.509 9.25H652.949C656.059 9.25 658.419 10.07 660.049 11.69C661.679 13.32 662.489 15.68 662.489 18.79V128.53C662.489 131.64 661.679 134 660.049 135.63C658.419 137.26 656.059 138.07 652.949 138.07H642.509C639.399 138.07 637.039 137.26 635.409 135.63C633.779 134 632.969 131.64 632.969 128.53V18.79C632.969 15.68 633.779 13.32 635.409 11.69ZM642.509 56.96H730.219V85.59H642.509V56.96ZM712.309 11.69C713.939 10.06 716.299 9.25 719.409 9.25H729.849C732.959 9.25 735.319 10.07 736.949 11.69C738.579 13.32 739.389 15.68 739.389 18.79V128.53C739.389 131.64 738.579 134 736.949 135.63C735.319 137.26 732.959 138.07 729.849 138.07H719.409C716.299 138.07 713.929 137.26 712.309 135.63C710.679 134 709.869 131.64 709.869 128.53V18.79C709.869 15.68 710.679 13.32 712.309 11.69Z" fill="#045B88"/>
<path d="M821.269 9.98926C822.549 10.4893 823.639 11.2593 824.529 12.2993C825.429 13.3393 826.179 14.7093 826.799 16.3993L867.099 124.879C867.619 126.349 867.859 127.769 867.809 129.169C867.759 130.559 867.419 131.889 866.799 133.159C866.279 134.179 865.599 135.059 864.749 135.789C863.909 136.519 862.929 137.089 861.809 137.489C860.689 137.889 859.479 138.079 858.189 138.079H848.529C845.749 138.079 843.469 137.459 841.689 136.219C839.909 134.979 838.549 133.049 837.609 130.439L805.959 44.0293H807.079L775.429 130.439C774.489 133.049 773.119 134.969 771.349 136.219C769.569 137.459 767.289 138.079 764.509 138.079H754.859C753.569 138.079 752.359 137.879 751.239 137.489C750.119 137.089 749.139 136.519 748.289 135.789C747.449 135.059 746.769 134.179 746.279 133.159C745.639 131.889 745.289 130.559 745.239 129.169C745.189 127.779 745.429 126.349 745.949 124.879L786.249 16.3993C786.869 14.7093 787.629 13.3393 788.519 12.2993C789.419 11.2593 790.499 10.4893 791.779 9.98926C793.059 9.48926 794.609 9.23926 796.419 9.23926H816.629C818.439 9.23926 819.989 9.48926 821.269 9.98926ZM778.719 80.1893H834.339L846.979 107.809H766.089L778.729 80.1893H778.719Z" fill="#045B88"/>
<path d="M851.36 35.43C849.73 33.8 848.92 31.44 848.92 28.33V18.79C848.92 15.68 849.73 13.32 851.36 11.69C852.99 10.06 855.35 9.25 858.46 9.25H944.35C947.46 9.25 949.82 10.07 951.45 11.69C953.08 13.31 953.89 15.68 953.89 18.79V28.33C953.89 31.44 953.08 33.8 951.45 35.43C949.82 37.06 947.46 37.87 944.35 37.87H858.46C855.35 37.87 852.99 37.06 851.36 35.43ZM886.64 18.79H916.17V128.53C916.17 131.64 915.36 134 913.73 135.63C912.1 137.26 909.74 138.07 906.63 138.07H896.19C893.08 138.07 890.72 137.26 889.09 135.63C887.46 134 886.65 131.64 886.65 128.53V18.79H886.64Z" fill="#045B88"/>
</g>
<defs>
<clipPath id="clip0_257_2">
<rect width="1506.86" height="147.32" fill="white"/>
</clipPath>
</defs>
</svg>
