<svg width="20" height="20" viewBox="0 0 20 20" fill="none" xmlns="http://www.w3.org/2000/svg">
<g clip-path="url(#clip0_485_4233)">
<path d="M20 8.63636V11.3636C20 11.7424 19.8674 12.0644 19.6023 12.3295C19.3371 12.5947 19.0152 12.7273 18.6364 12.7273H12.7273V18.6364C12.7273 19.0152 12.5947 19.3371 12.3295 19.6023C12.0644 19.8674 11.7424 20 11.3636 20H8.63636C8.25758 20 7.93561 19.8674 7.67045 19.6023C7.4053 19.3371 7.27273 19.0152 7.27273 18.6364V12.7273H1.36364C0.984849 12.7273 0.662879 12.5947 0.397727 12.3295C0.132576 12.0644 0 11.7424 0 11.3636V8.63636C0 8.25758 0.132576 7.93561 0.397727 7.67045C0.662879 7.4053 0.984849 7.27273 1.36364 7.27273H7.27273V1.36364C7.27273 0.984849 7.4053 0.662879 7.67045 0.397727C7.93561 0.132576 8.25758 0 8.63636 0H11.3636C11.7424 0 12.0644 0.132576 12.3295 0.397727C12.5947 0.662879 12.7273 0.984849 12.7273 1.36364V7.27273H18.6364C19.0152 7.27273 19.3371 7.4053 19.6023 7.67045C19.8674 7.93561 20 8.25758 20 8.63636Z" fill="black"/>
</g>
<defs>
<clipPath id="clip0_485_4233">
<rect width="20" height="20" fill="white"/>
</clipPath>
</defs>
</svg>
