<svg width="41" height="31" viewBox="0 0 41 31" fill="none" xmlns="http://www.w3.org/2000/svg">
<g clip-path="url(#clip0_562_45)">
<path d="M9.69024 19.0439C12.3089 19.0439 12.7984 18.8832 15.2128 17.9872C15.7045 17.789 16.1952 17.5865 16.6772 17.363C17.197 17.1219 17.7201 16.8655 18.2464 16.6046C22.1586 14.4712 25.4732 11.2184 27.6617 7.2456C27.5526 7.16854 25.3273 3.87056 19.6827 3.76378C13.4058 3.64489 8.39661 5.88501 5.3738 11.8535C4.43789 13.7007 3.82296 15.6425 3.5625 17.8011C3.92563 17.7549 5.03121 19.0439 9.68916 19.0439H9.69024ZM26.6491 6.87573C26.6177 6.94398 26.5875 7.01223 26.5572 7.08048C25.0896 6.30552 24.2931 5.71219 22.2775 5.55698C21.1028 10.5216 18.8873 13.6886 14.6767 16.0652C18.6333 13.202 20.584 9.49122 21.6907 4.35711C24.1601 4.87668 25.3349 5.70338 26.6491 6.87573ZM14.8777 4.6224C14.8777 5.09134 14.908 5.05942 14.8961 5.11226C13.7008 5.18931 11.9857 6.12609 11.6388 6.53448C12.5077 9.93044 11.2335 13.6676 8.01403 15.3376C10.798 12.3676 11.8485 10.3917 10.7515 6.45413C11.1687 6.07875 12.605 5.11005 14.8788 4.6213L14.8777 4.6224ZM10.1885 6.74474C11.4929 11.1655 8.17722 16.0751 4.34387 16.7609C5.50241 12.3863 6.54207 9.22813 10.1885 6.74474ZM12.5412 14.2544C15.162 11.5101 16.3746 8.37501 16.3421 4.35601C18.7489 4.01256 19.4136 4.03898 21.1319 4.29106C19.5119 13.879 12.1532 19.2542 4.49193 17.669C8.23018 17.6305 9.91828 16.9998 12.5401 14.2544H12.5412Z" fill="black"/>
<path d="M38.9603 2.66306C37.939 1.62721 36.7794 0.777394 35.3226 0.567142C33.5578 0.311757 31.9669 0.776293 30.8041 2.22054C29.6498 3.65377 28.9841 5.37322 28.3205 7.07615C27.9801 7.94798 27.5964 8.79449 27.0928 9.57055C25.6727 11.7578 23.9198 13.627 21.8167 15.1505C20.4053 16.1731 16.372 19.5625 7.5543 19.7122C7.84069 19.776 8.12817 19.8388 8.41456 19.9015C9.43153 20.1206 10.4625 20.2538 11.593 20.42C10.8041 20.802 10.067 20.8988 9.32021 20.8427C8.87063 20.8086 8.64151 20.9572 8.48481 21.381C8.31729 21.8367 8.09466 22.2759 7.85906 22.7008C7.60293 23.1621 7.33059 23.6112 7.04852 24.0537C6.96962 24.177 6.88965 24.3003 6.80859 24.4236C7.03014 24.4126 7.2571 24.4104 7.4927 24.4093C7.77044 24.4093 8.04387 24.4038 8.31621 24.4049C8.33999 24.3994 8.36377 24.3917 8.38862 24.3884C9.24132 24.2607 10.0908 24.1935 10.9532 24.231C11.0472 24.2354 11.138 24.2475 11.2255 24.2651C11.2666 24.2211 11.3098 24.1781 11.3509 24.1341C12.2079 23.2072 12.972 22.1945 13.6777 21.1289C13.8496 20.8702 14.0506 20.693 14.3672 20.6985C15.6965 20.7238 16.9804 20.4211 18.2741 20.1723C18.7312 20.0843 19.0781 19.8586 19.3688 19.5173C20.1567 18.5916 21.0732 17.8188 22.0631 17.1308C22.2349 17.0108 22.41 16.9107 22.7115 16.9338C22.0663 17.4688 21.5141 18.0126 20.977 18.574C20.161 19.4282 19.5774 20.3242 19.4499 21.6034C19.3645 22.4598 19.0122 23.3569 18.608 24.0835L24.4094 24.1385C24.9897 23.3283 25.4933 22.3629 25.9635 21.4503C27.0799 19.284 27.698 16.9437 28.2579 14.5858C28.7658 12.4458 29.7374 10.5778 31.3271 9.06639C32.4554 7.99311 33.7188 7.09817 34.9951 6.22083C36.2596 5.3523 37.5402 4.50689 38.8015 3.63396C39.2705 3.30923 39.3181 3.02852 38.9614 2.66526L38.9603 2.66306Z" fill="black"/>
<path d="M39.9946 24.4555H0V24.0152H38.9506L33.3913 18.3527L33.6961 18.0412L39.9946 24.4555Z" fill="black"/>
<path d="M39.6962 24.1499L33.7676 30.1886L34.0733 30.5L40.0019 24.4613L39.6962 24.1499Z" fill="black"/>
</g>
<defs>
<clipPath id="clip0_562_45">
<rect width="41" height="31" fill="white"/>
</clipPath>
</defs>
</svg>
