<svg width="40" height="40" viewBox="0 0 40 40" fill="none" xmlns="http://www.w3.org/2000/svg">
<g clip-path="url(#clip0_576_52)">
<path d="M6.87796 24.8903C9.8178 24.8903 10.3678 24.7034 13.078 23.6614C13.6301 23.4314 14.1806 23.1952 14.7222 22.9359C15.3063 22.656 15.893 22.3568 16.4839 22.0543C20.8761 19.5745 24.5961 15.7928 27.0536 11.1744C26.9314 11.0848 24.4336 7.25111 18.0957 7.12723C11.0494 6.98953 5.42561 9.59379 2.03277 16.5311C0.983091 18.6791 0.292568 20.9361 0 23.4463C0.407393 23.3927 1.64845 24.8903 6.87796 24.8903ZM25.9169 10.7436C25.8823 10.8232 25.8477 10.9023 25.8131 10.9819C24.1657 10.081 23.2712 9.39137 21.0093 9.21108C19.6901 14.982 17.2038 18.6642 12.4771 21.4266C16.9191 18.0984 19.1081 13.7842 20.3508 7.81577C23.1233 8.41968 24.442 9.38142 25.9169 10.7441V10.7436ZM12.7015 8.12436C12.7015 8.67021 12.7351 8.63316 12.7215 8.69455C11.3797 8.78414 9.45393 9.87252 9.06436 10.3476C10.0396 14.2952 8.60925 18.6398 4.99515 20.5816C8.12112 17.1289 9.29978 14.8327 8.06764 10.2547C8.53585 9.81887 10.1481 8.69178 12.701 8.12436H12.7015ZM7.43793 10.592C8.90182 15.7309 5.17971 21.4388 0.877179 22.2352C2.17853 17.1494 3.34513 13.4783 7.43793 10.592ZM10.0794 19.3217C13.0208 16.1313 14.383 12.4867 14.3458 7.81521C17.0481 7.41592 17.7932 7.44634 19.7232 7.74C17.9048 18.8854 9.6432 25.1347 1.04391 23.292C5.24105 23.2472 7.13593 22.5144 10.0794 19.3217Z" fill="black"/>
<path d="M17.7401 25.4396C18.6246 24.3634 19.6528 23.4647 20.7638 22.665C20.9568 22.5262 21.1539 22.409 21.4921 22.4361C20.7675 23.0582 20.1472 23.6898 19.5448 24.3424C18.6283 25.3351 17.9739 26.3765 17.8303 27.8636C17.6379 29.854 16.4812 31.4561 15.3555 33.0162C14.665 33.9741 13.8916 34.8546 13.0868 35.704C12.9001 35.9009 12.7953 36.116 12.8807 36.3666C12.9578 36.5939 13.1964 36.6143 13.3941 36.6315C13.6945 36.6575 13.9981 36.6774 14.298 36.658C15.7682 36.5651 17.1345 36.0845 18.4243 35.3584C21.5057 33.6229 23.5537 30.8749 25.1429 27.6838C26.3965 25.1659 27.0902 22.4455 27.7189 19.704C28.2893 17.2165 29.3799 15.0447 31.1647 13.2877C32.4314 12.0406 33.8502 10.9992 35.2821 9.97996C36.7014 8.97011 38.1391 7.98791 39.5553 6.97253C40.0812 6.5948 40.1352 6.26796 39.7346 5.8471C38.5879 4.64258 37.2866 3.6554 35.6502 3.4104C33.6688 3.11342 31.8835 3.65374 30.578 5.33277C29.2824 6.99852 28.5347 8.99776 27.7896 10.9776C27.4079 11.9914 26.977 12.9747 26.4112 13.8767C24.8173 16.419 22.849 18.5924 20.4886 20.3638C18.9046 21.5523 14.3766 25.4922 4.47755 25.6664C4.79896 25.741 5.12141 25.814 5.44386 25.8865C6.5853 26.142 7.74246 26.2957 9.0113 26.4893C8.12521 26.9334 7.29784 27.0456 6.45999 26.9804C5.95507 26.9411 5.69816 27.1137 5.52251 27.6064C5.33428 28.1357 5.08418 28.6461 4.8194 29.1406C3.76029 31.1171 2.45002 32.9167 1.21474 34.7688C1.07789 34.9735 0.969882 35.1615 1.09886 35.3965C1.24567 35.6653 1.47218 35.5613 1.68347 35.5049C3.44045 35.0371 5.00029 34.1588 6.43587 33.0052C8.40572 31.4229 9.97709 29.4624 11.3513 27.3122C11.5437 27.0108 11.7697 26.8051 12.1252 26.8123C13.6169 26.8421 15.0588 26.4893 16.5106 26.2C17.0244 26.0977 17.414 25.835 17.7396 25.4391L17.7401 25.4396Z" fill="black"/>
</g>
<defs>
<clipPath id="clip0_576_52">
<rect width="40" height="33.3333" fill="white" transform="translate(0 3.33301)"/>
</clipPath>
</defs>
</svg>
